<mxfile host="app.diagrams.net" modified="2023-06-05T12:23:32.025Z" agent="Mozilla/5.0 (Windows NT 10.0; Win64; x64) AppleWebKit/537.36 (KHTML, like Gecko) Chrome/112.0.0.0 Safari/537.36" etag="_ZQ8pcIVgj5_pQr01hj9" version="21.3.7" type="github">
  <diagram id="C5RBs43oDa-KdzZeNtuy" name="Page-1">
    <mxGraphModel dx="989" dy="483" grid="1" gridSize="10" guides="1" tooltips="1" connect="1" arrows="1" fold="1" page="1" pageScale="1" pageWidth="827" pageHeight="1169" math="0" shadow="0">
      <root>
        <mxCell id="WIyWlLk6GJQsqaUBKTNV-0" />
        <mxCell id="WIyWlLk6GJQsqaUBKTNV-1" parent="WIyWlLk6GJQsqaUBKTNV-0" />
        <mxCell id="xkzqJSquqaWhXPrr6gYa-0" value="NWA K8s Ingress/ CDN" style="rounded=0;whiteSpace=wrap;html=1;" parent="WIyWlLk6GJQsqaUBKTNV-1" vertex="1">
          <mxGeometry x="240" y="220" width="450" height="60" as="geometry" />
        </mxCell>
        <mxCell id="xkzqJSquqaWhXPrr6gYa-2" value="Http Bonus Web API" style="rounded=0;whiteSpace=wrap;html=1;" parent="WIyWlLk6GJQsqaUBKTNV-1" vertex="1">
          <mxGeometry x="240" y="320" width="450" height="60" as="geometry" />
        </mxCell>
        <mxCell id="xkzqJSquqaWhXPrr6gYa-3" value="ACS" style="rounded=0;whiteSpace=wrap;html=1;" parent="WIyWlLk6GJQsqaUBKTNV-1" vertex="1">
          <mxGeometry x="239" y="410" width="70" height="60" as="geometry" />
        </mxCell>
        <mxCell id="xkzqJSquqaWhXPrr6gYa-4" value="UCS" style="rounded=0;whiteSpace=wrap;html=1;" parent="WIyWlLk6GJQsqaUBKTNV-1" vertex="1">
          <mxGeometry x="319" y="410" width="70" height="60" as="geometry" />
        </mxCell>
        <mxCell id="xkzqJSquqaWhXPrr6gYa-7" value="ELK" style="shape=cylinder3;whiteSpace=wrap;html=1;boundedLbl=1;backgroundOutline=1;size=15;" parent="WIyWlLk6GJQsqaUBKTNV-1" vertex="1">
          <mxGeometry x="565" y="400" width="60" height="80" as="geometry" />
        </mxCell>
        <mxCell id="xkzqJSquqaWhXPrr6gYa-8" value="New Relic" style="shape=cylinder3;whiteSpace=wrap;html=1;boundedLbl=1;backgroundOutline=1;size=15;" parent="WIyWlLk6GJQsqaUBKTNV-1" vertex="1">
          <mxGeometry x="630" y="400" width="60" height="80" as="geometry" />
        </mxCell>
        <mxCell id="xkzqJSquqaWhXPrr6gYa-10" value="" style="shape=flexArrow;endArrow=classic;html=1;rounded=0;" parent="WIyWlLk6GJQsqaUBKTNV-1" edge="1">
          <mxGeometry width="50" height="50" relative="1" as="geometry">
            <mxPoint x="320" y="190" as="sourcePoint" />
            <mxPoint x="320" y="250" as="targetPoint" />
          </mxGeometry>
        </mxCell>
        <mxCell id="xkzqJSquqaWhXPrr6gYa-12" value="" style="shape=flexArrow;endArrow=classic;html=1;rounded=0;" parent="WIyWlLk6GJQsqaUBKTNV-1" edge="1">
          <mxGeometry width="50" height="50" relative="1" as="geometry">
            <mxPoint x="580" y="330" as="sourcePoint" />
            <mxPoint x="580" y="270" as="targetPoint" />
          </mxGeometry>
        </mxCell>
        <mxCell id="xkzqJSquqaWhXPrr6gYa-13" value="" style="shape=flexArrow;endArrow=classic;html=1;rounded=0;" parent="WIyWlLk6GJQsqaUBKTNV-1" edge="1">
          <mxGeometry width="50" height="50" relative="1" as="geometry">
            <mxPoint x="320" y="270" as="sourcePoint" />
            <mxPoint x="320" y="330" as="targetPoint" />
          </mxGeometry>
        </mxCell>
        <mxCell id="xkzqJSquqaWhXPrr6gYa-14" value="" style="endArrow=classic;startArrow=classic;html=1;rounded=0;entryX=0.087;entryY=1.017;entryDx=0;entryDy=0;entryPerimeter=0;exitX=0.568;exitY=-0.016;exitDx=0;exitDy=0;exitPerimeter=0;" parent="WIyWlLk6GJQsqaUBKTNV-1" source="xkzqJSquqaWhXPrr6gYa-3" edge="1">
          <mxGeometry width="50" height="50" relative="1" as="geometry">
            <mxPoint x="549" y="390" as="sourcePoint" />
            <mxPoint x="278.1500000000001" y="381.02" as="targetPoint" />
            <Array as="points">
              <mxPoint x="279" y="390" />
            </Array>
          </mxGeometry>
        </mxCell>
        <mxCell id="xkzqJSquqaWhXPrr6gYa-16" value="" style="endArrow=classic;startArrow=classic;html=1;rounded=0;entryX=0.25;entryY=1.031;entryDx=0;entryDy=0;entryPerimeter=0;exitX=0.457;exitY=-0.005;exitDx=0;exitDy=0;exitPerimeter=0;" parent="WIyWlLk6GJQsqaUBKTNV-1" source="xkzqJSquqaWhXPrr6gYa-4" edge="1">
          <mxGeometry width="50" height="50" relative="1" as="geometry">
            <mxPoint x="389" y="410" as="sourcePoint" />
            <mxPoint x="351.5" y="381.86" as="targetPoint" />
          </mxGeometry>
        </mxCell>
        <mxCell id="xkzqJSquqaWhXPrr6gYa-21" value="" style="endArrow=classic;html=1;rounded=0;exitX=0.786;exitY=1.027;exitDx=0;exitDy=0;exitPerimeter=0;" parent="WIyWlLk6GJQsqaUBKTNV-1" edge="1">
          <mxGeometry width="50" height="50" relative="1" as="geometry">
            <mxPoint x="660.39" y="380" as="sourcePoint" />
            <mxPoint x="659.6018758434548" y="410" as="targetPoint" />
          </mxGeometry>
        </mxCell>
        <mxCell id="xkzqJSquqaWhXPrr6gYa-22" value="" style="endArrow=classic;html=1;rounded=0;exitX=0.786;exitY=1.027;exitDx=0;exitDy=0;exitPerimeter=0;" parent="WIyWlLk6GJQsqaUBKTNV-1" edge="1">
          <mxGeometry width="50" height="50" relative="1" as="geometry">
            <mxPoint x="595.39" y="380" as="sourcePoint" />
            <mxPoint x="594.6018758434548" y="410" as="targetPoint" />
          </mxGeometry>
        </mxCell>
        <mxCell id="xkzqJSquqaWhXPrr6gYa-23" value="" style="shape=flexArrow;endArrow=classic;html=1;rounded=0;" parent="WIyWlLk6GJQsqaUBKTNV-1" edge="1">
          <mxGeometry width="50" height="50" relative="1" as="geometry">
            <mxPoint x="580" y="253" as="sourcePoint" />
            <mxPoint x="580" y="193" as="targetPoint" />
          </mxGeometry>
        </mxCell>
        <mxCell id="WQwPp3sSMRMGF20hZy6C-0" value="UBS" style="rounded=0;whiteSpace=wrap;html=1;" parent="WIyWlLk6GJQsqaUBKTNV-1" vertex="1">
          <mxGeometry x="399" y="410" width="70" height="60" as="geometry" />
        </mxCell>
        <mxCell id="WQwPp3sSMRMGF20hZy6C-2" value="" style="endArrow=classic;startArrow=classic;html=1;rounded=0;entryX=0.389;entryY=-0.033;entryDx=0;entryDy=0;exitX=0.482;exitY=1.017;exitDx=0;exitDy=0;entryPerimeter=0;exitPerimeter=0;" parent="WIyWlLk6GJQsqaUBKTNV-1" target="WQwPp3sSMRMGF20hZy6C-0" edge="1">
          <mxGeometry width="50" height="50" relative="1" as="geometry">
            <mxPoint x="425.9000000000001" y="381.02" as="sourcePoint" />
            <mxPoint x="269" y="320" as="targetPoint" />
          </mxGeometry>
        </mxCell>
        <mxCell id="SwUKXSp7buGVi63-H9OY-0" value="&lt;p class=&quot;MsoNormal&quot;&gt;&lt;font face=&quot;Calibri&quot;&gt;Casino WebAPI/&lt;br&gt;NWA casino API&lt;/font&gt;&lt;/p&gt;" style="rounded=0;whiteSpace=wrap;html=1;" vertex="1" parent="WIyWlLk6GJQsqaUBKTNV-1">
          <mxGeometry x="479" y="410" width="70" height="60" as="geometry" />
        </mxCell>
        <mxCell id="SwUKXSp7buGVi63-H9OY-1" value="" style="endArrow=classic;startArrow=classic;html=1;rounded=0;entryX=0.389;entryY=-0.033;entryDx=0;entryDy=0;exitX=0.482;exitY=1.017;exitDx=0;exitDy=0;entryPerimeter=0;exitPerimeter=0;" edge="1" parent="WIyWlLk6GJQsqaUBKTNV-1" target="SwUKXSp7buGVi63-H9OY-0">
          <mxGeometry width="50" height="50" relative="1" as="geometry">
            <mxPoint x="505.9000000000001" y="381.02" as="sourcePoint" />
            <mxPoint x="349" y="320" as="targetPoint" />
          </mxGeometry>
        </mxCell>
        <mxCell id="SwUKXSp7buGVi63-H9OY-2" value="Vendor&lt;br&gt;API&amp;nbsp;" style="rounded=0;whiteSpace=wrap;html=1;" vertex="1" parent="WIyWlLk6GJQsqaUBKTNV-1">
          <mxGeometry x="140" y="320" width="70" height="60" as="geometry" />
        </mxCell>
        <mxCell id="SwUKXSp7buGVi63-H9OY-3" value="" style="endArrow=classic;startArrow=classic;html=1;rounded=0;entryX=1;entryY=0.5;entryDx=0;entryDy=0;exitX=0;exitY=0.5;exitDx=0;exitDy=0;" edge="1" parent="WIyWlLk6GJQsqaUBKTNV-1" source="xkzqJSquqaWhXPrr6gYa-2" target="SwUKXSp7buGVi63-H9OY-2">
          <mxGeometry width="50" height="50" relative="1" as="geometry">
            <mxPoint x="290" y="410" as="sourcePoint" />
            <mxPoint x="340" y="360" as="targetPoint" />
          </mxGeometry>
        </mxCell>
      </root>
    </mxGraphModel>
  </diagram>
</mxfile>
